<?xml version="1.0" encoding="iso-8859-1"?>
<!-- Generator: Adobe Illustrator 19.0.0, SVG Export Plug-In . SVG Version: 6.00 Build 0)  -->
<svg version="1.1" id="Capa_1" xmlns="http://www.w3.org/2000/svg" xmlns:xlink="http://www.w3.org/1999/xlink" x="0px" y="0px"
	 viewBox="0 0 470 470" style="enable-background:new 0 0 470 470;" xml:space="preserve">
<g>
	<path d="M235,0C132.991,0,50,82.99,50,185c0,50.538,19.963,108.442,53.401,154.894c17.384,24.147,37.048,43.376,58.448,57.151
		c17.553,11.3,35.629,18.457,53.948,21.404c-10.86,11.882-17.169,27.572-17.169,44.051c0,4.143,3.358,7.5,7.5,7.5h57.744
		c4.142,0,7.5-3.357,7.5-7.5c0-16.479-6.309-32.168-17.169-44.051c18.318-2.948,36.394-10.104,53.948-21.404
		c21.4-13.775,41.064-33.004,58.448-57.151C400.037,293.442,420,235.538,420,185C420,82.99,337.009,0,235,0z M214.196,455
		c2.055-13.481,9.573-25.693,20.804-33.605c11.231,7.912,18.749,20.124,20.804,33.605H214.196z M354.425,331.13
		c-34.29,47.634-76.7,73.868-119.419,73.87c-42.73-0.002-85.141-26.237-119.431-73.87C84.379,287.794,65,231.8,65,185
		c0-93.738,76.262-170,170-170s170,76.262,170,170C405,231.8,385.621,287.794,354.425,331.13z"/>
	<path d="M235,40c-79.953,0-145,65.047-145,145c0,4.143,3.358,7.5,7.5,7.5s7.5-3.357,7.5-7.5c0-71.683,58.318-130,130-130
		c4.142,0,7.5-3.357,7.5-7.5S239.142,40,235,40z"/>
</g>
<g>
</g>
<g>
</g>
<g>
</g>
<g>
</g>
<g>
</g>
<g>
</g>
<g>
</g>
<g>
</g>
<g>
</g>
<g>
</g>
<g>
</g>
<g>
</g>
<g>
</g>
<g>
</g>
<g>
</g>
</svg>
