<svg id="Capa_1" enable-background="new 0 0 512 512" height="512" viewBox="0 0 512 512" width="512" fill="#e5e5e5" xmlns="http://www.w3.org/2000/svg"><g><g><path d="m409.83 93.97c-13.499 0-26.86 4.504-37.624 12.682-3.298 2.506-3.94 7.211-1.435 10.509 2.505 3.299 7.211 3.938 10.509 1.435 8.169-6.207 18.309-9.625 28.549-9.625 25.993 0 47.14 21.147 47.14 47.141v45.55c0 15.523-7.642 30.048-20.439 38.85l-33.282 22.883c-.002-5.123-.235-10.235-.649-15.328l26.569-18.273c9.268-6.372 14.801-16.889 14.801-28.131v-45.55c0-18.825-15.315-34.141-34.14-34.141-7.987 0-15.764 2.821-21.899 7.945l-22.31 18.643-10.843-17.598c-6.92-11.25-10.578-24.169-10.578-37.36v-25.232l13.354-13.24c8.613-8.54 11.695-21.03 8.044-32.597-4.253-13.477-16.607-22.533-30.741-22.533h-159.172c-14.133 0-26.488 9.056-30.742 22.533-3.651 11.566-.568 24.057 8.044 32.597l13.354 13.24v25.23c0 10.294-2.237 20.419-6.503 29.715l-17.821-14.893c-11.164-9.319-25.315-14.452-39.846-14.452-34.264 0-62.14 27.876-62.14 62.141v45.55c0 20.468 10.067 39.611 26.932 51.211l41.171 28.303c1.048 15.421 7.06 37.372 10.57 52.619 3.418 14.395 11.345 26.679 22.071 35.537h-55.755c-15.454 0-28.027 12.573-28.027 28.027v23.681c0 15.454 12.573 28.027 28.027 28.027h131.284v46.004c0 9.336 7.595 16.931 16.931 16.931h44.073c9.335 0 16.931-7.595 16.931-16.931v-17.898c0-4.143-3.358-7.5-7.5-7.5s-7.5 3.357-7.5 7.5v17.898c0 1.064-.866 1.931-1.931 1.931h-44.073c-1.064 0-1.931-.866-1.931-1.931v-46.004h55.435 138.784c15.454 0 28.027-12.573 28.027-28.027v-23.681c0-15.454-12.573-28.027-28.027-28.027h-55.755c10.727-8.858 18.653-21.142 22.071-35.538l6.27-26.429c1.963-8.265 3.35-16.663 4.191-25.114l42.732-29.38c16.869-11.603 26.94-30.747 26.94-51.21v-45.55c-.001-34.264-27.877-62.14-62.141-62.14zm-12.282 47.457c3.441-2.874 7.803-4.457 12.282-4.457 10.554 0 19.14 8.587 19.14 19.141v45.55c0 6.302-3.103 12.197-8.3 15.771l-20.166 13.87c-4.213-24.78-13.476-48.6-26.932-69.839zm-68.348-58.537h-147.86v-10.14h147.86zm-219.01 147.51-18.86-12.97c-5.197-3.572-8.299-9.468-8.299-15.77v-45.55c0-10.554 8.586-19.141 19.14-19.141 4.48 0 8.836 1.581 12.271 4.455l23.019 19.238c-13.596 21.308-22.945 45.036-27.271 69.738zm49.056-203.351c2.275-7.207 8.88-12.049 16.438-12.049h159.173c7.557 0 14.163 4.842 16.438 12.049 1.952 6.185.304 12.863-4.301 17.429l-13.381 13.268h-156.684l-13.382-13.268c-4.605-4.566-6.253-11.245-4.301-17.429zm-104.216 174.611v-45.55c0-25.993 21.147-47.141 47.14-47.141 11.024 0 21.762 3.895 30.23 10.965l19.905 16.635-6.895 11.189-21.347-17.841c-6.125-5.125-13.9-7.948-21.894-7.948-18.825 0-34.14 15.315-34.14 34.141v45.55c0 11.242 5.533 21.759 14.8 28.13l25.166 17.307c-.438 5.076-.668 10.181-.697 15.302l-31.838-21.888c-12.793-8.799-20.43-23.323-20.43-38.851zm370.491 182.67c9.347-.1 14.239 8.897 13.027 17.368h-305.6c-4.142 0-7.5 3.357-7.5 7.5s3.358 7.5 7.5 7.5h305.601c1.213 8.471-3.684 17.469-13.027 17.367h-340.503c-9.346.1-14.239-8.896-13.027-17.367h25.803c4.142 0 7.5-3.357 7.5-7.5s-3.358-7.5-7.5-7.5h-25.804c-1.213-8.471 3.684-17.47 13.027-17.368zm-48.278-54.002c-5.452 22.964-25.743 39.002-49.343 39.002h-145.26c-23.6 0-43.891-16.038-49.343-39.001-2.871-12.638-8.608-33.844-9.818-46.496-8.016-52.542 15.897-102.86 45.059-145.014 7.623-12.392 11.963-26.461 12.682-40.93h148.1c.72 14.469 5.06 28.538 12.685 40.935 34.738 50.278 56.964 103.234 41.508 165.074z"/><path d="m335.031 313.284c-40.669 9.276-82.322 8.703-110.102 6.589-4.136-.327-7.734 2.779-8.048 6.909-.314 4.131 2.779 7.733 6.909 8.048 10.094.769 21.956 1.338 34.943 1.338 24.083 0 52.023-1.962 79.633-8.259 4.038-.921 6.565-4.941 5.644-8.98-.92-4.038-4.938-6.568-8.979-5.645z"/><path d="m190.718 315.98c-9.564-1.47-15.218-2.698-15.273-2.71-4.047-.885-8.043 1.675-8.93 5.72-.887 4.046 1.674 8.046 5.72 8.933.245.054 6.121 1.334 16.205 2.884 4.004.644 7.942-2.16 8.552-6.274.629-4.095-2.18-7.924-6.274-8.553z"/><path d="m256.831 230.353c11.218 0 23.799-.95 36.298-3.801 4.039-.922 6.565-4.942 5.644-8.98-.921-4.039-4.939-6.563-8.98-5.645-33.34 7.605-68.759.063-69.112-.015-4.044-.885-8.04 1.676-8.927 5.721-.888 4.046 1.673 8.045 5.719 8.933 1.037.227 17.645 3.787 39.358 3.787z"/></g></g></svg>