<svg id="Capa_1" enable-background="new 0 0 512 512" height="512" viewBox="0 0 512 512" width="512" xmlns="http://www.w3.org/2000/svg"><g><g><path d="m78.79 439.85c0 4.142 3.358 7.5 7.5 7.5h339.42c4.142 0 7.5-3.358 7.5-7.5v-64.65c0-4.142-3.358-7.5-7.5-7.5h-260.39c-4.142 0-7.5 3.358-7.5 7.5s3.358 7.5 7.5 7.5h252.89v49.65h-324.42v-49.65h36.53c4.142 0 7.5-3.358 7.5-7.5s-3.358-7.5-7.5-7.5h-44.03c-4.142 0-7.5 3.358-7.5 7.5z"/><path d="m272.163 415.024c4.142 0 7.5-3.358 7.5-7.5s-3.358-7.5-7.5-7.5h-32.325c-4.142 0-7.5 3.358-7.5 7.5s3.358 7.5 7.5 7.5z"/><path d="m458.03 0h-404.06c-4.142 0-7.5 3.358-7.5 7.5v44.65c0 4.142 3.358 7.5 7.5 7.5s7.5-3.358 7.5-7.5v-37.15h389.06v345.429c0 4.142 3.358 7.5 7.5 7.5s7.5-3.358 7.5-7.5v-352.929c0-4.142-3.358-7.5-7.5-7.5z"/><path d="m458.03 387.929c-4.142 0-7.5 3.358-7.5 7.5v69.241h-389.06v-377.52c0-4.142-3.358-7.5-7.5-7.5s-7.5 3.358-7.5 7.5v385.02c0 4.142 3.358 7.5 7.5 7.5h22.802v24.83c0 4.142 3.358 7.5 7.5 7.5h32.325c3.28 0 6.18-2.132 7.159-5.263l8.458-27.067h247.571l8.458 27.067c.979 3.131 3.878 5.263 7.159 5.263h32.325c4.142 0 7.5-3.358 7.5-7.5v-24.83h22.802c4.142 0 7.5-3.358 7.5-7.5v-76.741c.001-4.142-3.357-7.5-7.499-7.5zm-346.947 109.071h-19.311v-17.33h24.727zm309.145 0h-19.311l-5.416-17.33h24.727z"/><path d="m78.792 342.874c0 4.142 3.358 7.5 7.5 7.5h339.415c4.142 0 7.5-3.358 7.5-7.5v-135.362c0-4.142-3.358-7.5-7.5-7.5h-339.415c-4.142 0-7.5 3.358-7.5 7.5zm55.407-7.5v-88.037h17.325v88.037zm81.976 0h-17.325v-75.915h17.325zm15-83.415v-4.622h17.325v4.622 83.415h-17.325zm32.325 83.415v-75.915h17.325v75.915zm81.976 0h-17.326v-75.915h17.325v75.915zm15 0v-83.415-4.622h17.325v88.037zm-266.684-120.362h324.415v120.362h-25.407v-95.537c0-4.142-3.358-7.5-7.5-7.5h-32.325c-4.142 0-7.5 3.358-7.5 7.5v4.622h-24.825c-4.142 0-7.5 3.358-7.5 7.5v83.415h-17.325v-83.415c0-4.142-3.358-7.5-7.5-7.5h-24.825v-4.622c0-4.142-3.358-7.5-7.5-7.5h-32.325c-4.142 0-7.5 3.358-7.5 7.5v4.622h-24.825c-4.142 0-7.5 3.358-7.5 7.5v83.415h-17.325v-95.537c0-4.142-3.358-7.5-7.5-7.5h-32.325c-4.142 0-7.5 3.358-7.5 7.5v95.537h-25.408z"/><path d="m86.292 182.687h339.415c4.142 0 7.5-3.358 7.5-7.5v-135.362c0-4.142-3.358-7.5-7.5-7.5h-339.415c-4.142 0-7.5 3.358-7.5 7.5v135.362c0 4.142 3.358 7.5 7.5 7.5zm47.907-15v-88.037h17.325v88.037zm81.976 0h-17.325v-75.915h17.325zm15-83.415v-4.622h17.325v88.037h-17.325zm32.325-4.622h17.325v88.037h-17.325zm32.325 0h17.325v4.622 83.415h-17.325zm32.325 12.122h17.325v75.915h-17.325zm32.326 75.915v-83.415-4.622h17.325v88.037zm-266.684-120.362h324.415v120.362h-25.407v-95.537c0-4.142-3.358-7.5-7.5-7.5h-32.325c-4.142 0-7.5 3.358-7.5 7.5v4.622h-17.325v-4.622c0-4.142-3.358-7.5-7.5-7.5h-64.65-32.325c-4.142 0-7.5 3.358-7.5 7.5v4.622h-24.825c-4.142 0-7.5 3.358-7.5 7.5v83.415h-17.325v-95.537c0-4.142-3.358-7.5-7.5-7.5h-32.325c-4.142 0-7.5 3.358-7.5 7.5v95.537h-25.408z"/></g></g></svg>