<?xml version="1.0" encoding="iso-8859-1"?>
<!-- Generator: Adobe Illustrator 19.0.0, SVG Export Plug-In . SVG Version: 6.00 Build 0)  -->
<svg version="1.1" id="Capa_1" xmlns="http://www.w3.org/2000/svg" xmlns:xlink="http://www.w3.org/1999/xlink" x="0px" y="0px"
	 viewBox="0 0 512 512" style="enable-background:new 0 0 512 512;" xml:space="preserve">
<g>
	<g>
		<path d="M407.07,377.01c-1.86-1.86-4.44-2.93-7.07-2.93s-5.21,1.07-7.07,2.93c-1.86,1.86-2.93,4.44-2.93,7.07s1.07,5.21,2.93,7.07
			c1.86,1.87,4.44,2.93,7.07,2.93s5.21-1.06,7.07-2.93c1.86-1.86,2.93-4.44,2.93-7.07S408.93,378.871,407.07,377.01z"/>
	</g>
</g>
<g>
	<g>
		<path d="M472,0.001H40c-22.056,0-40,17.944-40,40v314.083c0,22.056,17.944,40,40,40h157v50.197
			c-29.332,2.858-52.333,27.65-52.333,57.719c0,5.523,4.477,10,10,10h202.667c5.523,0,10-4.477,10-10
			c0-30.749-24.055-55.972-54.333-57.872v-50.044h46.667c5.523,0,10-4.477,10-10s-4.477-10-10-10H40c-11.028,0-20-8.972-20-20
			V40.001c0-11.028,8.972-20,20-20h432c11.028,0,20,8.972,20,20v314.083c0,11.028-8.972,20-20,20h-37.333c-5.523,0-10,4.477-10,10
			s4.477,10,10,10H472c22.056,0,40-17.944,40-40V40.001C512,17.944,494.056,0.001,472,0.001z M217,394.084h76v49.917h-76V394.084z
			 M309.333,464.001c17.494,0,32.265,11.882,36.666,28H166.001c4.4-16.118,19.171-28,36.665-28H309.333z"/>
	</g>
</g>
<g>
	<g>
		<path d="M262.07,345.011c-1.86-1.86-4.44-2.93-7.07-2.93c-2.63,0-5.21,1.07-7.07,2.93c-1.86,1.86-2.93,4.44-2.93,7.07
			c0,2.64,1.07,5.21,2.93,7.07c1.86,1.87,4.44,2.93,7.07,2.93s5.21-1.06,7.07-2.93c1.86-1.86,2.93-4.43,2.93-7.07
			C265,349.451,263.93,346.871,262.07,345.011z"/>
	</g>
</g>
<g>
	<g>
		<path d="M146.196,183.314l48.996-48.995c3.906-3.905,3.906-10.237,0.001-14.142c-3.905-3.905-10.237-3.905-14.143,0
			l-56.066,56.066c-3.905,3.905-3.905,10.237,0,14.143l56.066,56.066c1.953,1.953,4.512,2.929,7.071,2.929
			c2.559,0,5.119-0.976,7.071-2.929c3.905-3.905,3.905-10.237,0-14.143L146.196,183.314z"/>
	</g>
</g>
<g>
	<g>
		<path d="M387.015,176.243l-56.066-56.066c-3.905-3.905-10.237-3.905-14.143,0c-3.905,3.905-3.905,10.237,0,14.143l48.996,48.995
			l-48.996,48.995c-3.904,3.905-3.904,10.237,0.001,14.142c1.953,1.953,4.512,2.929,7.071,2.929s5.119-0.976,7.071-2.929
			l56.066-56.066C390.92,186.48,390.92,180.149,387.015,176.243z"/>
	</g>
</g>
<g>
	<g>
		<path d="M273.557,121.53c-5.334-1.432-10.818,1.737-12.248,7.071l-29.938,111.731c-1.429,5.335,1.737,10.818,7.071,12.248
			c0.867,0.232,1.738,0.343,2.595,0.343c4.415,0,8.456-2.947,9.653-7.414l29.938-111.731
			C282.058,128.442,278.892,122.96,273.557,121.53z"/>
	</g>
</g>
<g>
	<g>
		<path d="M462,40.084H303c-5.523,0-10,4.477-10,10s4.477,10,10,10h149v250H60v-250h153.5c5.523,0,10-4.477,10-10s-4.477-10-10-10
			H50c-5.523,0-10,4.477-10,10v270c0,5.523,4.477,10,10,10h412c5.523,0,10-4.477,10-10v-270C472,44.561,467.523,40.084,462,40.084z"
			/>
	</g>
</g>
<g>
	<g>
		<path d="M265.07,43.011c-1.86-1.86-4.44-2.93-7.07-2.93s-5.21,1.07-7.07,2.93s-2.93,4.44-2.93,7.07s1.07,5.21,2.93,7.08
			c1.86,1.86,4.44,2.92,7.07,2.92s5.21-1.06,7.07-2.92c1.86-1.87,2.93-4.44,2.93-7.08C268,47.451,266.93,44.871,265.07,43.011z"/>
	</g>
</g>
<g>
</g>
<g>
</g>
<g>
</g>
<g>
</g>
<g>
</g>
<g>
</g>
<g>
</g>
<g>
</g>
<g>
</g>
<g>
</g>
<g>
</g>
<g>
</g>
<g>
</g>
<g>
</g>
<g>
</g>
</svg>
