<?xml version="1.0" encoding="iso-8859-1"?>
<!-- Generator: Adobe Illustrator 19.0.0, SVG Export Plug-In . SVG Version: 6.00 Build 0)  -->
<svg version="1.1" id="Capa_1" xmlns="http://www.w3.org/2000/svg" xmlns:xlink="http://www.w3.org/1999/xlink" x="0px" y="0px"
	 viewBox="0 0 512 512" style="enable-background:new 0 0 512 512;" xml:space="preserve">
<g>
	<g>
		<path d="M495.512,496.756h-1.249v-10.12c0-12.906-9.693-23.584-22.18-25.156V334.588h14.555c4.209,0,7.622-3.412,7.622-7.622
			c0-4.21-3.413-7.622-7.622-7.622h-9.492c2.422-4.307,3.809-9.269,3.809-14.552c0-16.432-13.368-29.799-29.799-29.799
			c-16.432,0-29.799,13.368-29.799,29.799c0,5.282,1.388,10.245,3.809,14.552h-9.493c-4.209,0-7.622,3.411-7.622,7.622
			c0,4.21,3.413,7.622,7.622,7.622h14.556v50.219c-16.34,22.6-45.471,36.553-76.649,36.553c-31.181,0-60.312-13.953-76.65-36.554
			v-50.218h14.555c4.209,0,7.622-3.412,7.622-7.622c0-4.21-3.413-7.622-7.622-7.622h-9.492c2.422-4.307,3.809-9.269,3.809-14.552
			c0-16.432-13.368-29.799-29.799-29.799c-16.432,0-29.798,13.368-29.798,29.799c0,5.282,1.388,10.245,3.809,14.552h-9.493
			c-4.209,0-7.622,3.411-7.622,7.622c0,4.21,3.413,7.622,7.622,7.622h14.556V384.7c-16.312,22.671-45.426,36.66-76.651,36.66
			c-31.226,0-60.342-13.99-76.651-36.66v-50.112h14.555c4.209,0,7.622-3.412,7.622-7.622c0-4.21-3.413-7.622-7.622-7.622h-9.493
			c2.422-4.307,3.809-9.269,3.809-14.552c0-16.432-13.368-29.799-29.799-29.799s-29.799,13.368-29.799,29.799
			c0,5.282,1.388,10.245,3.809,14.552H25.36c-4.209,0-7.622,3.411-7.622,7.622c0,4.21,3.413,7.622,7.622,7.622h14.556V461.48
			c-12.487,1.572-22.179,12.25-22.179,25.156v0.001l0.001,10.119h-1.248c-4.209,0-7.622,3.412-7.622,7.622
			c0,4.21,3.413,7.622,7.622,7.622h8.871h70.967h8.871c4.209,0,7.622-3.411,7.622-7.622c0-4.21-3.413-7.622-7.622-7.622h-1.249
			v-10.12c0-12.906-9.692-23.584-22.18-25.156V407.57c19.661,18.249,47.412,29.034,76.651,29.034s56.989-10.784,76.651-29.034
			v53.911c-12.487,1.572-22.18,12.25-22.18,25.156v0.001l0.001,10.119h-1.248c-4.209,0-7.622,3.412-7.622,7.622
			c0,4.21,3.413,7.622,7.622,7.622h8.871h70.967h8.871c4.209,0,7.622-3.411,7.622-7.622c0-4.21-3.413-7.622-7.622-7.622h-1.249
			v-10.12c0-12.906-9.693-23.584-22.18-25.156v-53.854c19.681,18.209,47.442,28.977,76.65,28.977
			c29.207,0,56.969-10.767,76.649-28.976v53.853c-12.487,1.572-22.18,12.251-22.18,25.156v0.001l0.001,10.119H406.8
			c-4.209,0-7.622,3.412-7.622,7.622c0,4.21,3.413,7.622,7.622,7.622h8.871h70.967h8.871c4.209,0,7.622-3.411,7.622-7.622
			C503.131,500.168,499.721,496.756,495.512,496.756z M60.845,290.237c8.026,0,14.556,6.53,14.556,14.556
			c0,8.006-6.498,14.52-14.497,14.552h-0.118c-7.999-0.033-14.497-6.546-14.497-14.552
			C46.289,296.768,52.818,290.237,60.845,290.237z M66.527,388.233v73.041H55.161V334.591h11.368v51.043h-0.001
			C66.38,386.489,66.377,387.367,66.527,388.233z M88.707,486.637v10.12H32.983l-0.001-10.12c0-5.58,4.54-10.12,10.12-10.12h4.437
			H74.15h4.437C84.167,476.517,88.707,481.056,88.707,486.637z M256.001,290.237c8.025,0,14.556,6.53,14.556,14.556
			c0,8.006-6.498,14.52-14.497,14.552h-0.118c-7.998-0.033-14.496-6.546-14.496-14.552
			C241.446,296.768,247.976,290.237,256.001,290.237z M250.318,385.626v-51.035h11.368v52.465c-0.002,0.109-0.002,0.216,0,0.325
			v73.892h-11.368v-73.035C250.47,387.368,250.467,386.485,250.318,385.626z M283.865,486.637v10.12H228.14l-0.001-10.12
			c0-5.58,4.541-10.12,10.121-10.12h4.437h26.611h4.437C279.324,476.517,283.865,481.056,283.865,486.637z M451.157,290.237
			c8.026,0,14.556,6.53,14.556,14.556c0,8.006-6.498,14.52-14.497,14.552h-0.118c-7.999-0.033-14.497-6.546-14.497-14.552
			C436.601,296.768,443.13,290.237,451.157,290.237z M456.84,334.592v126.681h-11.368v-73.93c0.001-0.078,0.001-0.156,0-0.235
			v-52.516H456.84z M479.019,496.756h-55.725l-0.001-10.12c0-5.58,4.54-10.12,10.12-10.12h4.437h26.611h4.437
			c5.58,0,10.121,4.54,10.121,10.12V496.756z"/>
	</g>
</g>
<g>
	<g>
		<path d="M441.037,60.865c0-0.007,0.001-0.013,0.001-0.019s-0.001-0.013-0.001-0.019V7.622c0-4.21-3.413-7.622-7.622-7.622H78.588
			c-4.209,0-7.622,3.412-7.622,7.622v53.194c0,0.01-0.001,0.019-0.001,0.029s0.001,0.019,0.001,0.029v141.874
			c0,0.01-0.001,0.019-0.001,0.029c0,0,0.001,0.019,0.001,0.029v53.194c0,4.21,3.413,7.622,7.622,7.622h53.164
			c0.02,0,0.039,0.003,0.059,0.003c0.02,0,0.039-0.003,0.059-0.003h248.262c0.02,0,0.039,0.003,0.059,0.003s0.039-0.003,0.059-0.003
			h53.165c4.209,0,7.622-3.412,7.622-7.622v-53.204l0.001-0.019c0-0.007-0.001-0.013-0.001-0.013V60.865z M139.433,15.244h233.139
			v11.37H139.433V15.244z M368.761,118.671c-1.418-2.094-3.782-3.349-6.311-3.349h-27.86V86.211h10.119
			c4.209,0,7.622-3.412,7.622-7.622c0-4.21-3.413-7.622-7.622-7.622h-17.741H220.519h-17.742c-4.209,0-7.622,3.412-7.622,7.622
			c0,4.21,3.413,7.622,7.622,7.622h6.485l-11.644,29.11h-48.062c-2.93,0-5.601,1.679-6.87,4.32
			c-1.269,2.641-0.913,5.775,0.918,8.064l25.576,31.97h-56.357V41.857h286.172v117.818h-43.03l13.561-33.901
			C370.465,123.426,370.179,120.765,368.761,118.671z M202.775,130.567c0.009,0,0.017-0.002,0.026-0.002h148.391l-11.644,29.107
			h-150.85l-23.285-29.108h37.32v0.001C202.747,130.565,202.761,130.567,202.775,130.567z M319.345,115.321h-105.31l11.644-29.11
			h93.666V115.321z M86.21,15.244h37.979v11.37H105.2c-4.209,0-7.622,3.411-7.622,7.622v18.99H86.21V15.244z M86.21,68.467h11.369
			v126.689H86.21V68.467z M124.19,248.38H86.21V210.4h11.369v18.805c0,4.21,3.413,7.622,7.622,7.622h18.99V248.38z M325.892,221.583
			c-4.209,0-7.622,3.411-7.622,7.622c0,4.21,3.413,7.622,7.622,7.622h46.677v11.554H139.433v-11.554h153.125
			c4.209,0,7.622-3.412,7.622-7.622c0-4.21-3.413-7.622-7.622-7.622H112.822v-46.665h286.173v46.665H325.892z M425.793,248.38
			h-37.98v-11.554h18.804c4.209,0,7.622-3.412,7.622-7.622V210.4h11.555V248.38z M425.793,195.156h-11.555V68.467h11.555V195.156z
			 M425.794,53.224L425.794,53.224h-11.556V34.235c0-4.21-3.413-7.622-7.622-7.622h-18.802v-11.37h37.979V53.224z"/>
	</g>
</g>
<g>
	<g>
		<path d="M193.908,186.287h-53.224c-4.209,0-7.622,3.412-7.622,7.622c0,4.21,3.413,7.622,7.622,7.622h53.224
			c4.209,0,7.622-3.411,7.622-7.622C201.529,189.698,198.117,186.287,193.908,186.287z"/>
	</g>
</g>
<g>
	<g>
		<path d="M371.319,195.156h-53.224c-4.209,0-7.622,3.412-7.622,7.622c0,4.21,3.413,7.622,7.622,7.622h53.224
			c4.209,0,7.622-3.412,7.622-7.622C378.941,198.568,375.529,195.156,371.319,195.156z"/>
	</g>
</g>
<g>
</g>
<g>
</g>
<g>
</g>
<g>
</g>
<g>
</g>
<g>
</g>
<g>
</g>
<g>
</g>
<g>
</g>
<g>
</g>
<g>
</g>
<g>
</g>
<g>
</g>
<g>
</g>
<g>
</g>
</svg>
